# xmcd CD database file
#
# Track frame offsets:
#	150
#	37988
#	64644
#	78739
#	99850
#	121238
#	143195
#	173598
#	194795
#	212733
#	246153
#	272293
#	293910
#	309583
#
# Disc length: 4495 seconds
#
# Revision: 0
# Processed by: cddbd v1.4PL0 Copyright (c) Steve Scherf et al.
# Submitted via: CDex 1.50
#
DISCID=c5118d0e
DTITLE=Diverse - 2003 Popkomm - Dutch World
DYEAR=2003
DGENRE=Rhythmic Soul
TTITLE0=The Yuri Honing Trio - Isobel
TTITLE1=Eric Vaarzon Morel - Inmoral
TTITLE2=Droeh Nankoe - Kanhaija ko ham sangh
TTITLE3=Carel Kraayenhof - Adios Nonino
TTITLE4=Fernando Lameirinhas - Lusitano
TTITLE5=Mäshräp - Tarim
TTITLE6=Jump to addis - Bati
TTITLE7=Leonardo Amuedo - Angel de la guardia
TTITLE8=Nueva Mantenca - King Porter Stomp
TTITLE9=Fra Fra Sound - Takamba
TTITLE10=Praful - Inspiracao
TTITLE11=R'Chestra - Isho
TTITLE12=Zuco - Tao lonely
TTITLE13=Cubop City Big Band - La Cartera
EXTD=YEAR: 2003
EXTT0=
EXTT1=
EXTT2=
EXTT3=
EXTT4=
EXTT5=
EXTT6=
EXTT7=
EXTT8=
EXTT9=
EXTT10=
EXTT11=
EXTT12=
EXTT13=
PLAYORDER=
